<?xml version="1.0" encoding="UTF-8"?>
<!DOCTYPE svg PUBLIC "-//W3C//DTD SVG 1.1//EN" "http://www.w3.org/Graphics/SVG/1.1/DTD/svg11.dtd">
<svg xmlns="http://www.w3.org/2000/svg" version="1.1" width="3840px" height="2160px" style="shape-rendering:geometricPrecision; text-rendering:geometricPrecision; image-rendering:optimizeQuality; fill-rule:evenodd; clip-rule:evenodd" xmlns:xlink="http://www.w3.org/1999/xlink">
<g><path style="opacity:0.259" fill="#1583d3" d="M 890.5,421.5 C 818.833,421.5 747.167,421.5 675.5,421.5C 645.5,421.5 615.5,421.5 585.5,421.5C 585.667,445.169 585.5,468.836 585,492.5C 583.961,491.756 583.461,490.756 583.5,489.5C 584.498,466.673 584.831,443.673 584.5,420.5C 686.668,420.167 788.668,420.501 890.5,421.5 Z"/></g>
<g><path style="opacity:0.259" fill="#1584d3" d="M 2099.5,421.5 C 2189,420.501 2278.67,420.167 2368.5,420.5C 2368.5,432.5 2368.5,444.5 2368.5,456.5C 2367.51,445.012 2367.17,433.345 2367.5,421.5C 2278.17,421.5 2188.83,421.5 2099.5,421.5 Z"/></g>
<g><path style="opacity:1" fill="#2eaaf6" d="M 583.5,489.5 C 583.461,490.756 583.961,491.756 585,492.5C 585.5,468.836 585.667,445.169 585.5,421.5C 615.5,421.5 645.5,421.5 675.5,421.5C 676.833,423.5 678.5,425.167 680.5,426.5C 663.005,427.332 645.338,427.832 627.5,428C 653.45,453.782 679.116,479.616 704.5,505.5C 692.5,505.5 680.5,505.5 668.5,505.5C 668.833,639.334 668.5,773.001 667.5,906.5C 611.943,773.704 556.61,640.704 501.5,507.5C 451.5,506.167 401.5,506.167 351.5,507.5C 342.724,528.706 333.724,549.706 324.5,570.5C 323.069,571.78 322.402,573.447 322.5,575.5C 322.065,578.157 321.065,580.491 319.5,582.5C 318.069,583.78 317.402,585.447 317.5,587.5C 317.672,588.492 317.338,589.158 316.5,589.5C 315.069,590.78 314.402,592.447 314.5,594.5C 314.672,595.492 314.338,596.158 313.5,596.5C 312.069,597.78 311.402,599.447 311.5,601.5C 309.707,603.426 308.707,605.759 308.5,608.5C 292.594,644.653 276.928,680.987 261.5,717.5C 232.435,787.343 202.768,857.009 172.5,926.5C 173.242,927.287 174.075,927.953 175,928.5C 175.399,928.272 175.565,927.938 175.5,927.5C 210.168,927.667 244.835,927.5 279.5,927C 293.628,897.242 307.628,867.409 321.5,837.5C 389.498,836.333 457.498,836.167 525.5,837C 539.773,866.88 553.773,896.88 567.5,927C 635.166,927.5 702.833,927.667 770.5,927.5C 770.333,817.166 770.5,706.833 771,596.5C 819.108,706.383 866.942,816.383 914.5,926.5C 942.161,927.667 969.827,927.833 997.5,927C 1014.27,892.197 1030.93,857.364 1047.5,822.5C 1048.04,822.56 1048.38,822.893 1048.5,823.5C 1044.81,830.19 1042.31,837.19 1041,844.5C 1096.22,900.054 1151.39,955.554 1206.5,1011C 1163.17,1011.5 1119.83,1011.67 1076.5,1011.5C 1076.67,987.831 1076.5,964.164 1076,940.5C 1075.28,941.044 1074.78,941.711 1074.5,942.5C 1065.39,965.694 1056.06,988.694 1046.5,1011.5C 988.163,1011.83 929.83,1011.5 871.5,1010.5C 862.024,987.54 852.524,964.54 843,941.5C 842.503,943.81 842.337,946.143 842.5,948.5C 842.5,969.833 842.5,991.167 842.5,1012.5C 730.833,1012.67 619.166,1012.5 507.5,1012C 493.388,982.273 479.388,952.44 465.5,922.5C 463.955,921.548 462.288,921.215 460.5,921.5C 433.995,921.169 407.661,921.502 381.5,922.5C 370.204,952.068 358.538,981.401 346.5,1010.5C 242.736,1011.83 139.069,1011.83 35.5,1010.5C 80.7135,908.404 126.214,806.404 172,704.5C 211.833,610.167 251.667,515.833 291.5,421.5C 379.5,420.167 467.5,420.167 555.5,421.5C 565.399,443.96 574.732,466.626 583.5,489.5 Z"/></g>
<g><path style="opacity:1" fill="#0773c3" d="M 2097.5,456.5 C 2097.92,457.222 2098.58,457.722 2099.5,458C 2099.32,459.616 2098.99,461.116 2098.5,462.5C 2070.26,441.593 2038.76,429.926 2004,427.5C 1677.26,427.173 1349.76,427.506 1021.5,428.5C 999.756,478.242 977.922,527.909 956,577.5C 934.021,527.71 912.187,477.877 890.5,428C 820.43,427.83 750.43,427.33 680.5,426.5C 678.5,425.167 676.833,423.5 675.5,421.5C 747.167,421.5 818.833,421.5 890.5,421.5C 912.283,471.077 934.116,520.743 956,570.5C 977.782,520.483 999.949,470.649 1022.5,421C 1345.15,420.504 1667.32,420.337 1989,420.5C 2021.47,420.576 2051.97,428.409 2080.5,444C 2086.63,447.644 2092.3,451.811 2097.5,456.5 Z"/></g>
<g><path style="opacity:1" fill="#0571c1" d="M 2954.5,422.5 C 3048.1,421.503 3141.76,421.169 3235.5,421.5C 3247.66,444.485 3259.33,467.818 3270.5,491.5C 3270.78,492.289 3271.28,492.956 3272,493.5C 3272.5,469.502 3272.67,445.502 3272.5,421.5C 3361.83,420.167 3451.17,420.167 3540.5,421.5C 3540.5,618.167 3540.5,814.833 3540.5,1011.5C 3452.5,1011.5 3364.5,1011.5 3276.5,1011.5C 3272.2,1006.7 3267.7,1002.04 3263,997.5C 3264.92,1001.98 3267.42,1006.31 3270.5,1010.5C 3266.89,1011.49 3263.23,1011.82 3259.5,1011.5C 3241.93,982.701 3224.6,953.701 3207.5,924.5C 3207.54,923.244 3207.04,922.244 3206,921.5C 3205.5,931.161 3205.33,940.828 3205.5,950.5C 3179.55,925.215 3153.88,899.548 3128.5,873.5C 3128.17,785.665 3128.5,697.998 3129.5,610.5C 3192.81,715.77 3256.14,821.103 3319.5,926.5C 3363.16,927.5 3406.83,927.833 3450.5,927.5C 3451.5,789.001 3451.83,650.334 3451.5,511.5C 3417.33,511.168 3383.33,511.502 3349.5,512.5C 3349.67,610.834 3349.5,709.167 3349,807.5C 3291.75,709.336 3234.25,611.336 3176.5,513.5C 3126.5,512.5 3076.5,512.167 3026.5,512.5C 3026.5,594.5 3026.5,676.5 3026.5,758.5C 2994.89,727.061 2963.39,695.395 2932,663.5C 2931.83,663.833 2931.67,664.167 2931.5,664.5C 2963.76,741.962 2995.43,819.628 3026.5,897.5C 3026.67,903.509 3026.5,909.509 3026,915.5C 2970.21,781.593 2914.71,647.593 2859.5,513.5C 2829.52,511.508 2799.19,510.841 2768.5,511.5C 2741.08,483.747 2713.75,456.08 2686.5,428.5C 2624.36,427.549 2563.19,427.215 2503,427.5C 2464.43,429.693 2425.93,437.86 2387.5,452C 2379.15,455.451 2370.98,459.284 2363,463.5C 2362.5,451.505 2362.33,439.505 2362.5,427.5C 2274.83,427.5 2187.17,427.5 2099.5,427.5C 2099.5,425.5 2099.5,423.5 2099.5,421.5C 2188.83,421.5 2278.17,421.5 2367.5,421.5C 2367.17,433.345 2367.51,445.012 2368.5,456.5C 2420.32,432.436 2474.82,420.436 2532,420.5C 2660.35,420.343 2789.18,420.509 2918.5,421C 2930.46,444.422 2942.29,467.922 2954,491.5C 2954.5,468.502 2954.67,445.502 2954.5,422.5 Z"/></g>
<g><path style="opacity:0.259" fill="#1584d3" d="M 3235.5,421.5 C 3141.76,421.169 3048.1,421.503 2954.5,422.5C 3001,421.167 3047.83,420.5 3095,420.5C 3142,420.5 3188.83,420.833 3235.5,421.5 Z"/></g>
<g><path style="opacity:0.812" fill="#1987d8" d="M 3272.5,421.5 C 3272.67,445.502 3272.5,469.502 3272,493.5C 3271.28,492.956 3270.78,492.289 3270.5,491.5C 3271.17,468.167 3271.83,444.833 3272.5,421.5 Z"/></g>
<g><path style="opacity:0.576" fill="#1583d3" d="M 3540.5,421.5 C 3541.5,618.333 3541.83,815.333 3541.5,1012.5C 3452.5,1012.5 3363.5,1012.5 3274.5,1012.5C 3274.84,1011.66 3275.51,1011.33 3276.5,1011.5C 3364.5,1011.5 3452.5,1011.5 3540.5,1011.5C 3540.5,814.833 3540.5,618.167 3540.5,421.5 Z"/></g>
<g><path style="opacity:1" fill="#218edf" d="M 2099.5,421.5 C 2099.5,423.5 2099.5,425.5 2099.5,427.5C 2187.17,427.5 2274.83,427.5 2362.5,427.5C 2362.33,439.505 2362.5,451.505 2363,463.5C 2370.98,459.284 2379.15,455.451 2387.5,452C 2425.93,437.86 2464.43,429.693 2503,427.5C 2563.19,427.215 2624.36,427.549 2686.5,428.5C 2713.75,456.08 2741.08,483.747 2768.5,511.5C 2748.66,511.17 2728.99,511.503 2709.5,512.5C 2663.85,622.474 2618.18,732.474 2572.5,842.5C 2552.51,843.666 2532.51,843.833 2512.5,843C 2477.15,840.296 2452.31,822.796 2438,790.5C 2431.6,772.735 2428.27,754.402 2428,735.5C 2425.65,705.27 2429.65,675.936 2440,647.5C 2445.27,633.751 2453.77,622.584 2465.5,614C 2483.03,602.379 2502.37,596.379 2523.5,596C 2559.5,595.5 2595.5,595.333 2631.5,595.5C 2631.5,565.833 2631.5,536.167 2631.5,506.5C 2590.5,506.333 2549.5,506.5 2508.5,507C 2475.78,507.929 2444.78,515.596 2415.5,530C 2400.8,539.035 2388.3,550.535 2378,564.5C 2354.99,596.851 2340.99,632.851 2336,672.5C 2329.99,718.331 2332.32,763.997 2343,809.5C 2363.36,878.458 2409.19,918.291 2480.5,929C 2493.09,931.065 2505.76,932.399 2518.5,933C 2560.17,933.833 2601.84,933.667 2643.5,932.5C 2655.18,901.138 2666.84,869.805 2678.5,838.5C 2748.83,837.167 2819.17,837.167 2889.5,838.5C 2890.73,840.297 2891.4,842.297 2891.5,844.5C 2900.09,873.93 2909.09,903.264 2918.5,932.5C 2921.37,933.208 2924.2,933.875 2927,934.5C 2989.67,934.5 3052.33,934.5 3115,934.5C 3117.47,933.88 3119.97,933.214 3122.5,932.5C 3122.42,930.872 3122.09,929.205 3121.5,927.5C 3122.17,907.833 3122.83,888.167 3123.5,868.5C 3124.83,869.167 3125.83,870.167 3126.5,871.5C 3126.83,872.5 3127.5,873.167 3128.5,873.5C 3153.88,899.548 3179.55,925.215 3205.5,950.5C 3205.5,970.833 3205.5,991.167 3205.5,1011.5C 3204.21,1011.26 3203.21,1011.6 3202.5,1012.5C 3087.83,1012.67 2973.17,1012.5 2858.5,1012C 2846.34,980.34 2834.67,948.507 2823.5,916.5C 2795.5,916.333 2767.5,916.5 2739.5,917C 2727.5,948.667 2715.5,980.333 2703.5,1012C 2636.5,1012.67 2569.5,1012.67 2502.5,1012C 2453.44,1009.94 2406.94,998.111 2363,976.5C 2362.5,988.495 2362.33,1000.5 2362.5,1012.5C 2218.83,1012.67 2075.17,1012.5 1931.5,1012C 1930.17,966 1930.17,920 1931.5,874C 1930.71,870.924 1930.21,867.758 1930,864.5C 1928.83,863.107 1927.33,862.273 1925.5,862C 1919.51,861.501 1913.51,861.334 1907.5,861.5C 1907.5,866.833 1907.5,872.167 1907.5,877.5C 1906.82,884.234 1906.15,891.068 1905.5,898C 1905.47,900.548 1905.8,903.215 1906.5,906C 1905.83,912 1905.17,918 1904.5,924C 1904.83,926.333 1905.17,928.667 1905.5,931C 1904.83,937.333 1904.17,943.667 1903.5,950C 1903.83,953 1904.17,956 1904.5,959C 1903.83,964.667 1903.17,970.333 1902.5,976C 1902.83,979 1903.17,982 1903.5,985C 1901.94,996.508 1901.28,1007.34 1901.5,1017.5C 1903.5,1017.5 1905.5,1017.5 1907.5,1017.5C 1677,1018.5 1446.33,1018.83 1215.5,1018.5C 1214.79,1017.6 1213.79,1017.26 1212.5,1017.5C 1211.37,1015.87 1210.04,1014.37 1208.5,1013C 1164.5,1012.5 1120.5,1012.33 1076.5,1012.5C 1076.5,1012.17 1076.5,1011.83 1076.5,1011.5C 1119.83,1011.67 1163.17,1011.5 1206.5,1011C 1151.39,955.554 1096.22,900.054 1041,844.5C 1042.31,837.19 1044.81,830.19 1048.5,823.5C 1048.38,822.893 1048.04,822.56 1047.5,822.5C 1079.02,749.268 1110.36,675.935 1141.5,602.5C 1142.18,603.602 1142.84,604.602 1143.5,605.5C 1143.29,606.922 1142.79,608.255 1142,609.5C 1141.5,701.499 1141.33,793.499 1141.5,885.5C 1141.5,901.5 1141.5,917.5 1141.5,933.5C 1157.17,933.5 1172.83,933.5 1188.5,933.5C 1206.79,933.917 1225.13,933.917 1243.5,933.5C 1243.5,931.5 1243.5,929.5 1243.5,927.5C 1243.5,786.833 1243.5,646.167 1243.5,505.5C 1189.5,505.5 1135.5,505.5 1081.5,505.5C 1078.92,505.083 1076.75,505.75 1075,507.5C 1044.79,582.649 1014.29,657.649 983.5,732.5C 978.749,745.421 973.416,758.088 967.5,770.5C 958.236,760.734 948.736,751.068 939,741.5C 938.536,742.094 938.369,742.761 938.5,743.5C 936.248,740.068 933.748,736.734 931,733.5C 897.667,660.167 864.333,586.833 831,513.5C 790.904,512.67 750.738,512.17 710.5,512C 708.627,510.296 706.96,508.463 705.5,506.5C 705.5,505.833 705.167,505.5 704.5,505.5C 679.116,479.616 653.45,453.782 627.5,428C 645.338,427.832 663.005,427.332 680.5,426.5C 750.43,427.33 820.43,427.83 890.5,428C 912.187,477.877 934.021,527.71 956,577.5C 977.922,527.909 999.756,478.242 1021.5,428.5C 1349.76,427.506 1677.26,427.173 2004,427.5C 2038.76,429.926 2070.26,441.593 2098.5,462.5C 2098.99,461.116 2099.32,459.616 2099.5,458C 2098.58,457.722 2097.92,457.222 2097.5,456.5C 2098.17,444.833 2098.83,433.167 2099.5,421.5 Z M 1321.5,506.5 C 1432.83,506.5 1544.17,506.5 1655.5,506.5C 1655.5,536.167 1655.5,565.833 1655.5,595.5C 1577.66,595.167 1500,595.501 1422.5,596.5C 1422.01,622.982 1422.51,649.315 1424,675.5C 1499,675.167 1574,674.833 1649,674.5C 1649.5,702.498 1649.67,730.498 1649.5,758.5C 1573.83,758.5 1498.17,758.5 1422.5,758.5C 1422.5,786.833 1422.5,815.167 1422.5,843.5C 1500.17,843.5 1577.83,843.5 1655.5,843.5C 1655.5,873.5 1655.5,903.5 1655.5,933.5C 1544.17,933.5 1432.83,933.5 1321.5,933.5C 1321.5,791.167 1321.5,648.833 1321.5,506.5 Z M 1995.5,506.5 C 2019.74,506.453 2043.07,511.619 2065.5,522C 2094.56,539.261 2111.23,564.761 2115.5,598.5C 2120.85,646.655 2104.85,685.822 2067.5,716C 2060.55,720.776 2053.21,724.943 2045.5,728.5C 2047.22,729.934 2049.22,730.767 2051.5,731C 2050.94,731.383 2050.61,731.883 2050.5,732.5C 2048.58,732.795 2046.91,733.628 2045.5,735C 2057.93,738.219 2069.59,743.052 2080.5,749.5C 2086.54,755.214 2091.37,761.881 2095,769.5C 2103.75,787.155 2108.75,805.822 2110,825.5C 2110.5,859.498 2110.67,893.498 2110.5,927.5C 2080.83,927.5 2051.17,927.5 2021.5,927.5C 2021.83,902.328 2021.5,877.328 2020.5,852.5C 2020.31,832.407 2015.14,813.74 2005,796.5C 2001.21,791.863 1996.71,788.197 1991.5,785.5C 1982.49,779.597 1972.49,776.764 1961.5,777C 1915.5,776.5 1869.5,776.333 1823.5,776.5C 1823.5,826.833 1823.5,877.167 1823.5,927.5C 1789.83,927.5 1756.17,927.5 1722.5,927.5C 1722.5,787.167 1722.5,646.833 1722.5,506.5C 1813.5,506.5 1904.5,506.5 1995.5,506.5 Z M 2284.5,507.5 C 2284.17,647.5 2283.83,787.5 2283.5,927.5C 2250.17,927.5 2216.83,927.5 2183.5,927.5C 2183.5,787.167 2183.5,646.833 2183.5,506.5C 2217.24,506.174 2250.91,506.507 2284.5,507.5 Z"/></g>
<g><path style="opacity:1" fill="#0571c1" d="M 2115.5,598.5 C 2111.23,564.761 2094.56,539.261 2065.5,522C 2043.07,511.619 2019.74,506.453 1995.5,506.5C 1904.67,505.501 1813.67,505.167 1722.5,505.5C 1722.46,503.854 1722.46,502.188 1722.5,500.5C 1762.5,500.167 1802.5,499.833 1842.5,499.5C 1894,499.929 1943.17,499.929 1990,499.5C 1995.33,500.167 2000.67,500.833 2006,501.5C 2031.36,500.946 2055.53,508.446 2078.5,524C 2101.99,543.469 2114.32,568.303 2115.5,598.5 Z"/></g>
<g><path style="opacity:1" fill="#0773c3" d="M 1081.5,505.5 C 1081.5,505.833 1081.5,506.167 1081.5,506.5C 1050.36,582.586 1019.03,658.586 987.5,734.5C 986.833,734.5 986.167,734.5 985.5,734.5C 985.167,733.5 984.5,732.833 983.5,732.5C 1014.29,657.649 1044.79,582.649 1075,507.5C 1076.75,505.75 1078.92,505.083 1081.5,505.5 Z"/></g>
<g><path style="opacity:0.576" fill="#1583d3" d="M 1321.5,506.5 C 1433,505.501 1544.67,505.167 1656.5,505.5C 1656.5,535.833 1656.5,566.167 1656.5,596.5C 1578.5,596.5 1500.5,596.5 1422.5,596.5C 1500,595.501 1577.66,595.167 1655.5,595.5C 1655.5,565.833 1655.5,536.167 1655.5,506.5C 1544.17,506.5 1432.83,506.5 1321.5,506.5 Z"/></g>
<g><path style="opacity:0.259" fill="#1685d5" d="M 1722.5,505.5 C 1813.67,505.167 1904.67,505.501 1995.5,506.5C 1904.5,506.5 1813.5,506.5 1722.5,506.5C 1722.5,646.833 1722.5,787.167 1722.5,927.5C 1721.17,786.833 1721.17,646.167 1722.5,505.5 Z"/></g>
<g><path style="opacity:0.576" fill="#1583d3" d="M 2284.5,507.5 C 2250.91,506.507 2217.24,506.174 2183.5,506.5C 2183.5,646.833 2183.5,787.167 2183.5,927.5C 2182.5,787.001 2182.17,646.334 2182.5,505.5C 2216.85,504.84 2250.85,505.507 2284.5,507.5 Z"/></g>
<g><path style="opacity:0.812" fill="#1987d8" d="M 704.5,505.5 C 705.167,505.5 705.5,505.833 705.5,506.5C 693.5,506.5 681.5,506.5 669.5,506.5C 669.667,640.834 669.5,775.167 669,909.5C 667.961,908.756 667.461,907.756 667.5,906.5C 668.5,773.001 668.833,639.334 668.5,505.5C 680.5,505.5 692.5,505.5 704.5,505.5 Z"/></g>
<g><path style="opacity:0.259" fill="#1583d3" d="M 1081.5,506.5 C 1081.5,506.167 1081.5,505.833 1081.5,505.5C 1135.5,505.5 1189.5,505.5 1243.5,505.5C 1243.5,646.167 1243.5,786.833 1243.5,927.5C 1243.17,927.5 1242.83,927.5 1242.5,927.5C 1242.5,787.167 1242.5,646.833 1242.5,506.5C 1188.83,506.5 1135.17,506.5 1081.5,506.5 Z"/></g>
<g><path style="opacity:0.259" fill="#1583d3" d="M 2709.5,512.5 C 2728.99,511.503 2748.66,511.17 2768.5,511.5C 2799.19,510.841 2829.52,511.508 2859.5,513.5C 2809.57,512.505 2759.57,512.172 2709.5,512.5 Z"/></g>
<g><path style="opacity:0.259" fill="#1583d3" d="M 3349.5,512.5 C 3383.33,511.502 3417.33,511.168 3451.5,511.5C 3451.83,650.334 3451.5,789.001 3450.5,927.5C 3450.5,789.167 3450.5,650.833 3450.5,512.5C 3416.83,512.5 3383.17,512.5 3349.5,512.5 Z"/></g>
<g><path style="opacity:0.812" fill="#1a87d8" d="M 324.5,570.5 C 324.598,572.553 323.931,574.22 322.5,575.5C 322.402,573.447 323.069,571.78 324.5,570.5 Z"/></g>
<g><path style="opacity:1" fill="#2eaaf6" d="M 488.5,744.5 C 467.177,745.833 445.51,746.5 423.5,746.5C 401.664,746.5 379.997,746.167 358.5,745.5C 379.571,689.623 401.238,633.956 423.5,578.5C 445.716,633.601 467.382,688.935 488.5,744.5 Z"/></g>
<g><path style="opacity:1" fill="#218edf" d="M 2852.5,745.5 C 2807,746.499 2761.34,746.832 2715.5,746.5C 2738.84,689.999 2762.67,633.665 2787,577.5C 2809.13,633.406 2830.97,689.406 2852.5,745.5 Z"/></g>
<g><path style="opacity:0.812" fill="#1a87d8" d="M 319.5,582.5 C 319.598,584.553 318.931,586.22 317.5,587.5C 317.402,585.447 318.069,583.78 319.5,582.5 Z"/></g>
<g><path style="opacity:0.812" fill="#1a87d8" d="M 316.5,589.5 C 316.598,591.553 315.931,593.22 314.5,594.5C 314.402,592.447 315.069,590.78 316.5,589.5 Z"/></g>
<g><path style="opacity:0.259" fill="#1584d3" d="M 1148.5,927.5 C 1147.81,915.265 1147.15,902.932 1146.5,890.5C 1147.83,793.167 1147.83,695.833 1146.5,598.5C 1146.37,597.624 1146.7,596.957 1147.5,596.5C 1148.5,706.831 1148.83,817.165 1148.5,927.5 Z"/></g>
<g><path style="opacity:1" fill="#218edf" d="M 1823.5,595.5 C 1869.83,595.333 1916.17,595.5 1962.5,596C 2002.39,596.883 2017.89,616.716 2009,655.5C 2007.69,665.769 2003.86,674.936 1997.5,683C 1993.39,686.388 1988.72,688.721 1983.5,690C 1974.36,691.725 1965.19,692.891 1956,693.5C 1912.04,693.489 1867.87,693.489 1823.5,693.5C 1823.5,660.833 1823.5,628.167 1823.5,595.5 Z"/></g>
<g><path style="opacity:1" fill="#0571c1" d="M 1146.5,598.5 C 1147.83,695.833 1147.83,793.167 1146.5,890.5C 1145.17,888.5 1143.5,886.833 1141.5,885.5C 1141.33,793.499 1141.5,701.499 1142,609.5C 1142.79,608.255 1143.29,606.922 1143.5,605.5C 1144.26,602.982 1145.26,600.649 1146.5,598.5 Z"/></g>
<g><path style="opacity:0.933" fill="#1c8ada" d="M 313.5,596.5 C 313.598,598.553 312.931,600.22 311.5,601.5C 311.402,599.447 312.069,597.78 313.5,596.5 Z"/></g>
<g><path style="opacity:0.812" fill="#1a88d8" d="M 311.5,601.5 C 311.293,604.241 310.293,606.574 308.5,608.5C 308.707,605.759 309.707,603.426 311.5,601.5 Z"/></g>
<g><path style="opacity:1" fill="#218edf" d="M 3026.5,758.5 C 3028.46,759.96 3030.3,761.627 3032,763.5C 3032.67,812.167 3032.67,860.833 3032,909.5C 3030.39,905.29 3028.56,901.29 3026.5,897.5C 2995.43,819.628 2963.76,741.962 2931.5,664.5C 2931.67,664.167 2931.83,663.833 2932,663.5C 2963.39,695.395 2994.89,727.061 3026.5,758.5 Z"/></g>
<g><path style="opacity:0.576" fill="#1683d3" d="M 308.5,608.5 C 293.736,645.475 278.402,682.141 262.5,718.5C 262.5,717.833 262.167,717.5 261.5,717.5C 276.928,680.987 292.594,644.653 308.5,608.5 Z"/></g>
<g><path style="opacity:1" fill="#0975c5" d="M 2080.5,749.5 C 2069.59,743.052 2057.93,738.219 2045.5,735C 2046.91,733.628 2048.58,732.795 2050.5,732.5C 2055.14,731.87 2059.47,733.037 2063.5,736C 2069.93,739.603 2075.6,744.103 2080.5,749.5 Z"/></g>
<g><path style="opacity:1" fill="#2da7f3" d="M 983.5,732.5 C 984.5,732.833 985.167,733.5 985.5,734.5C 981.966,743.769 978.633,753.102 975.5,762.5C 974.069,763.78 973.402,765.447 973.5,767.5C 969.957,776.964 966.124,786.297 962,795.5C 953.881,778.264 946.047,760.93 938.5,743.5C 938.369,742.761 938.536,742.094 939,741.5C 948.736,751.068 958.236,760.734 967.5,770.5C 973.416,758.088 978.749,745.421 983.5,732.5 Z"/></g>
<g><path style="opacity:0.259" fill="#1583d3" d="M 488.5,744.5 C 489.404,745.209 489.737,746.209 489.5,747.5C 445.495,747.833 401.495,747.5 357.5,746.5C 357.624,745.893 357.957,745.56 358.5,745.5C 379.997,746.167 401.664,746.5 423.5,746.5C 445.51,746.5 467.177,745.833 488.5,744.5 Z"/></g>
<g><path style="opacity:0.576" fill="#1583d3" d="M 2852.5,745.5 C 2853.04,745.56 2853.38,745.893 2853.5,746.5C 2830.33,746.833 2807.17,747.167 2784,747.5C 2760.43,747.505 2737.6,747.172 2715.5,746.5C 2761.34,746.832 2807,746.499 2852.5,745.5 Z"/></g>
<g><path style="opacity:0.259" fill="#1a88d8" d="M 985.5,734.5 C 986.167,734.5 986.833,734.5 987.5,734.5C 984.012,744.134 980.012,753.467 975.5,762.5C 978.633,753.102 981.966,743.769 985.5,734.5 Z"/></g>
<g><path style="opacity:0.259" fill="#1583d3" d="M 3129.5,610.5 C 3128.5,697.998 3128.17,785.665 3128.5,873.5C 3127.5,873.167 3126.83,872.5 3126.5,871.5C 3127.17,783.999 3127.83,696.332 3128.5,608.5C 3129.3,608.957 3129.63,609.624 3129.5,610.5 Z"/></g>
<g><path style="opacity:0.812" fill="#1987d8" d="M 975.5,762.5 C 975.598,764.553 974.931,766.22 973.5,767.5C 973.402,765.447 974.069,763.78 975.5,762.5 Z"/></g>
<g><path style="opacity:1" fill="#0571c1" d="M 1991.5,785.5 C 1996.71,788.197 2001.21,791.863 2005,796.5C 2015.14,813.74 2020.31,832.407 2020.5,852.5C 2020.5,877.5 2020.5,902.5 2020.5,927.5C 2016.83,927.5 2013.17,927.5 2009.5,927.5C 2009.27,900.243 2009.27,874.409 2009.5,850C 2008.36,836.283 2005.86,822.783 2002,809.5C 1998.75,801.175 1994.59,793.341 1989.5,786C 1990.09,785.536 1990.76,785.369 1991.5,785.5 Z"/></g>
<g><path style="opacity:1" fill="#0f7aca" d="M 261.5,717.5 C 262.167,717.5 262.5,717.833 262.5,718.5C 233.776,788.281 204.776,857.948 175.5,927.5C 175.565,927.938 175.399,928.272 175,928.5C 174.075,927.953 173.242,927.287 172.5,926.5C 202.768,857.009 232.435,787.343 261.5,717.5 Z"/></g>
<g><path style="opacity:0.259" fill="#1583d3" d="M 2889.5,838.5 C 2819.17,837.167 2748.83,837.167 2678.5,838.5C 2713.33,837.167 2748.49,836.5 2784,836.5C 2819.51,836.5 2854.67,837.167 2889.5,838.5 Z"/></g>
<g><path style="opacity:1" fill="#0773c3" d="M 2891.5,844.5 C 2903.07,871.864 2914.07,899.531 2924.5,927.5C 2990.17,927.5 3055.83,927.5 3121.5,927.5C 3122.09,929.205 3122.42,930.872 3122.5,932.5C 3119.97,933.214 3117.47,933.88 3115,934.5C 3052.33,934.5 2989.67,934.5 2927,934.5C 2924.2,933.875 2921.37,933.208 2918.5,932.5C 2909.09,903.264 2900.09,873.93 2891.5,844.5 Z"/></g>
<g><path style="opacity:1" fill="#0570c1" d="M 1907.5,877.5 C 1907.5,924.167 1907.5,970.833 1907.5,1017.5C 1905.5,1017.5 1903.5,1017.5 1901.5,1017.5C 1901.28,1007.34 1901.94,996.508 1903.5,985C 1903.17,982 1902.83,979 1902.5,976C 1903.17,970.333 1903.83,964.667 1904.5,959C 1904.17,956 1903.83,953 1903.5,950C 1904.17,943.667 1904.83,937.333 1905.5,931C 1905.17,928.667 1904.83,926.333 1904.5,924C 1905.17,918 1905.83,912 1906.5,906C 1905.8,903.215 1905.47,900.548 1905.5,898C 1906.15,891.068 1906.82,884.234 1907.5,877.5 Z"/></g>
<g><path style="opacity:1" fill="#2eaaf6" d="M 1141.5,885.5 C 1143.5,886.833 1145.17,888.5 1146.5,890.5C 1147.15,902.932 1147.81,915.265 1148.5,927.5C 1160.17,927.5 1171.83,927.5 1183.5,927.5C 1185.17,929.5 1186.83,931.5 1188.5,933.5C 1172.83,933.5 1157.17,933.5 1141.5,933.5C 1141.5,917.5 1141.5,901.5 1141.5,885.5 Z"/></g>
<g><path style="opacity:0.259" fill="#1583d3" d="M 3123.5,868.5 C 3122.83,888.167 3122.17,907.833 3121.5,927.5C 3121.17,907.489 3121.5,887.489 3122.5,867.5C 3123.11,867.624 3123.44,867.957 3123.5,868.5 Z"/></g>
<g><path style="opacity:0.259" fill="#1584d3" d="M 381.5,922.5 C 407.661,921.502 433.995,921.169 460.5,921.5C 460.5,922.5 460.5,923.5 460.5,924.5C 434.394,922.523 408.06,921.856 381.5,922.5 Z"/></g>
<g><path style="opacity:1" fill="#0773c3" d="M 460.5,921.5 C 462.288,921.215 463.955,921.548 465.5,922.5C 479.388,952.44 493.388,982.273 507.5,1012C 619.166,1012.5 730.833,1012.67 842.5,1012.5C 842.5,1014.5 842.5,1016.5 842.5,1018.5C 726.833,1018.67 611.166,1018.5 495.5,1018C 483.34,987.02 471.673,955.853 460.5,924.5C 460.5,923.5 460.5,922.5 460.5,921.5 Z"/></g>
<g><path style="opacity:1" fill="#0772c3" d="M 1183.5,927.5 C 1203.17,927.5 1222.83,927.5 1242.5,927.5C 1242.83,927.5 1243.17,927.5 1243.5,927.5C 1243.5,929.5 1243.5,931.5 1243.5,933.5C 1225.13,933.917 1206.79,933.917 1188.5,933.5C 1186.83,931.5 1185.17,929.5 1183.5,927.5 Z"/></g>
<g><path style="opacity:1" fill="#0772c2" d="M 2183.5,927.5 C 2216.83,927.5 2250.17,927.5 2283.5,927.5C 2284.46,929.265 2284.79,931.265 2284.5,933.5C 2250.52,933.708 2216.52,933.708 2182.5,933.5C 2182.33,931.379 2182.66,929.379 2183.5,927.5 Z"/></g>
<g><path style="opacity:1" fill="#0b75c5" d="M 1074.5,942.5 C 1075.57,944.347 1075.57,946.347 1074.5,948.5C 1065.56,971.653 1056.23,994.653 1046.5,1017.5C 988.095,1017.83 929.762,1017.5 871.5,1016.5C 862.205,993.598 852.539,970.931 842.5,948.5C 842.337,946.143 842.503,943.81 843,941.5C 852.524,964.54 862.024,987.54 871.5,1010.5C 929.83,1011.5 988.163,1011.83 1046.5,1011.5C 1056.06,988.694 1065.39,965.694 1074.5,942.5 Z"/></g>
<g><path style="opacity:0.933" fill="#1f8cdd" d="M 1076.5,1011.5 C 1076.17,1011.5 1075.83,1011.5 1075.5,1011.5C 1075.83,990.327 1075.5,969.327 1074.5,948.5C 1075.57,946.347 1075.57,944.347 1074.5,942.5C 1074.78,941.711 1075.28,941.044 1076,940.5C 1076.5,964.164 1076.67,987.831 1076.5,1011.5 Z"/></g>
<g><path style="opacity:0.812" fill="#1886d7" d="M 3207.5,924.5 C 3206.5,953.662 3206.17,982.995 3206.5,1012.5C 3205.17,1012.5 3203.83,1012.5 3202.5,1012.5C 3203.21,1011.6 3204.21,1011.26 3205.5,1011.5C 3205.5,991.167 3205.5,970.833 3205.5,950.5C 3205.33,940.828 3205.5,931.161 3206,921.5C 3207.04,922.244 3207.54,923.244 3207.5,924.5 Z"/></g>
<g><path style="opacity:1" fill="#1f8cdd" d="M 3276.5,1011.5 C 3275.51,1011.33 3274.84,1011.66 3274.5,1012.5C 3269.31,1012.82 3264.31,1012.49 3259.5,1011.5C 3263.23,1011.82 3266.89,1011.49 3270.5,1010.5C 3267.42,1006.31 3264.92,1001.98 3263,997.5C 3267.7,1002.04 3272.2,1006.7 3276.5,1011.5 Z"/></g>
<g><path style="opacity:1" fill="#218edf" d="M 35.5,1010.5 C 139.069,1011.83 242.736,1011.83 346.5,1010.5C 345.395,1012.22 343.728,1013.22 341.5,1013.5C 239.931,1012.17 138.264,1012.17 36.5,1013.5C 35.9094,1012.85 35.2427,1012.18 34.5,1011.5C 34.6236,1010.89 34.9569,1010.56 35.5,1010.5 Z"/></g>
<g><path style="opacity:1" fill="#0571c1" d="M 341.5,1013.5 C 341.737,1014.79 341.404,1015.79 340.5,1016.5C 238.736,1017.83 137.069,1017.83 35.5,1016.5C 35.5569,1015.39 35.8902,1014.39 36.5,1013.5C 138.264,1012.17 239.931,1012.17 341.5,1013.5 Z"/></g>
<g><path style="opacity:1" fill="#0570c1" d="M 1076.5,1012.5 C 1120.5,1012.33 1164.5,1012.5 1208.5,1013C 1210.04,1014.37 1211.37,1015.87 1212.5,1017.5C 1167.17,1017.5 1121.83,1017.5 1076.5,1017.5C 1076.5,1015.83 1076.5,1014.17 1076.5,1012.5 Z"/></g>
<g><path style="opacity:0.576" fill="#1583d3" d="M 1075.5,1011.5 C 1075.83,1011.5 1076.17,1011.5 1076.5,1011.5C 1076.5,1011.83 1076.5,1012.17 1076.5,1012.5C 1076.5,1014.17 1076.5,1015.83 1076.5,1017.5C 1121.83,1017.5 1167.17,1017.5 1212.5,1017.5C 1213.79,1017.26 1214.79,1017.6 1215.5,1018.5C 1168.83,1018.5 1122.17,1018.5 1075.5,1018.5C 1075.5,1016.17 1075.5,1013.83 1075.5,1011.5 Z"/></g>
<g><path style="opacity:0.576" fill="#1583d3" d="M 35.5,1016.5 C 137.069,1017.83 238.736,1017.83 340.5,1016.5C 289.838,1017.83 238.838,1018.5 187.5,1018.5C 136.5,1018.17 85.5,1017.83 34.5,1017.5C 34.6236,1016.89 34.9569,1016.56 35.5,1016.5 Z"/></g>
<g><path style="opacity:0.576" fill="#1583d3" d="M 871.5,1016.5 C 929.762,1017.5 988.095,1017.83 1046.5,1017.5C 1017.5,1018.17 988.335,1018.5 959,1018.5C 929.492,1018.5 900.326,1017.83 871.5,1016.5 Z"/></g>
<g><path style="opacity:1" fill="#218edf" d="M 3436.5,1158.5 C 3436.37,1159.24 3436.54,1159.91 3437,1160.5C 3456.06,1179.39 3474.9,1198.39 3493.5,1217.5C 3462.05,1220.71 3433.72,1231.87 3408.5,1251C 3381.93,1275.02 3368.26,1305.02 3367.5,1341C 3367.07,1362.05 3370.91,1383.21 3379,1404.5C 3390.83,1430 3410,1447.5 3436.5,1457C 3452.41,1462.73 3468.74,1466.73 3485.5,1469C 3518.08,1472.47 3550.75,1474.8 3583.5,1476C 3609.49,1477.99 3623.49,1491.99 3625.5,1518C 3622.42,1546.41 3606.59,1560.91 3578,1561.5C 3512.32,1561.48 3446.15,1561.48 3379.5,1561.5C 3379.5,1591.17 3379.5,1620.83 3379.5,1650.5C 3448.83,1650.67 3518.17,1650.5 3587.5,1650C 3625.28,1648.85 3659.28,1637.18 3689.5,1615C 3724.56,1581.49 3738.06,1541.32 3730,1494.5C 3727.92,1482.53 3724.76,1470.86 3720.5,1459.5C 3720.86,1458.82 3721.2,1458.15 3721.5,1457.5C 3748.24,1486.07 3775.4,1514.07 3803,1541.5C 3803.5,1531.84 3803.67,1522.17 3803.5,1512.5C 3804.17,1518.49 3804.5,1524.66 3804.5,1531C 3804.65,1540.71 3803.99,1550.21 3802.5,1559.5C 3790.79,1621.35 3759.13,1670.19 3707.5,1706C 3679.13,1720.71 3649.3,1729.21 3618,1731.5C 3606,1731.5 3594,1731.5 3582,1731.5C 3578.33,1730.83 3574.67,1730.17 3571,1729.5C 3483.37,1729.51 3395.54,1729.51 3307.5,1729.5C 3307.83,1721.65 3307.49,1713.98 3306.5,1706.5C 3307.6,1702.25 3307.77,1697.92 3307,1693.5C 3294.75,1702.88 3281.25,1710.04 3266.5,1715C 3240.35,1722.97 3214.52,1727.81 3189,1729.5C 2912.48,1729.49 2634.98,1729.49 2356.5,1729.5C 2356.5,1733.5 2356.5,1737.5 2356.5,1741.5C 2355.5,1691.34 2355.17,1641 2355.5,1590.5C 2356.37,1586.99 2356.71,1583.49 2356.5,1580C 2355.67,1575.83 2353.17,1573.33 2349,1572.5C 2341.71,1572.57 2334.21,1572.57 2326.5,1572.5C 2326.5,1576.5 2326.5,1580.5 2326.5,1584.5C 2334.68,1584.17 2342.68,1584.51 2350.5,1585.5C 2342.5,1585.5 2334.5,1585.5 2326.5,1585.5C 2326.5,1633.5 2326.5,1681.5 2326.5,1729.5C 2236.83,1729.5 2147.17,1729.5 2057.5,1729.5C 2057.83,1679 2057.5,1628.66 2056.5,1578.5C 2056.2,1574.78 2056.53,1571.28 2057.5,1568C 2057,1567.5 2056.5,1567 2056,1566.5C 2034.84,1575.64 2013.51,1580.64 1992,1581.5C 1983.97,1582.68 1975.63,1583.68 1967,1584.5C 1941.87,1584.42 1916.03,1584.42 1889.5,1584.5C 1889.5,1588.5 1889.5,1592.5 1889.5,1596.5C 1889.5,1597.17 1889.5,1597.83 1889.5,1598.5C 1889.6,1623.05 1889.93,1647.55 1890.5,1672C 1889.81,1673.07 1889.31,1674.23 1889,1675.5C 1888.12,1673.36 1886.62,1672.03 1884.5,1671.5C 1884.5,1670.83 1884.17,1670.5 1883.5,1670.5C 1883.63,1669.76 1883.46,1669.09 1883,1668.5C 1855.2,1641.03 1827.86,1613.36 1801,1585.5C 1800.83,1607.34 1800.33,1629 1799.5,1650.5C 1799.5,1604.5 1799.5,1558.5 1799.5,1512.5C 1800.49,1506.69 1800.82,1500.69 1800.5,1494.5C 1848,1494.83 1895.34,1494.5 1942.5,1493.5C 2051.55,1489.29 2101.05,1432.96 2091,1324.5C 2090.15,1318.09 2088.99,1311.76 2087.5,1305.5C 2077.85,1270.03 2056.52,1244.53 2023.5,1229C 2003.36,1220.34 1982.86,1215.17 1962,1213.5C 1953.82,1212.76 1945.15,1211.76 1936,1210.5C 1826.86,1211.45 1717.86,1211.45 1609,1210.5C 1584.58,1236.75 1560.41,1263.08 1536.5,1289.5C 1530.25,1294.92 1524.41,1300.92 1519,1307.5C 1464.45,1252.78 1409.95,1198.45 1355.5,1144.5C 1350.19,1138.85 1344.85,1133.19 1339.5,1127.5C 1361.49,1126.33 1383.49,1126.17 1405.5,1127C 1431.33,1156.83 1457.17,1186.67 1483,1216.5C 1510.13,1186.37 1537.63,1156.53 1565.5,1127C 1693.5,1126.33 1821.5,1126.33 1949.5,1127C 1973.63,1128.3 1997.3,1132.3 2020.5,1139C 2036.04,1143.52 2049.88,1151.02 2062,1161.5C 2062.5,1149.84 2062.67,1138.17 2062.5,1126.5C 2177.5,1126.33 2292.5,1126.5 2407.5,1127C 2436.53,1128.87 2464.53,1135.21 2491.5,1146C 2500.58,1150.29 2509.08,1155.45 2517,1161.5C 2517.5,1149.84 2517.67,1138.17 2517.5,1126.5C 2681.17,1126.5 2844.83,1126.5 3008.5,1126.5C 3008.33,1138.17 3008.5,1149.84 3009,1161.5C 3020.01,1151.9 3032.51,1144.74 3046.5,1140C 3066.92,1132.85 3087.92,1128.52 3109.5,1127C 3207.5,1126.5 3305.5,1126.33 3403.5,1126.5C 3403.17,1138.52 3403.5,1150.52 3404.5,1162.5C 3412.22,1158.89 3419.72,1154.89 3427,1150.5C 3430.32,1152.99 3433.49,1155.65 3436.5,1158.5 Z M 3187.5,1650.5 C 3121.76,1650.83 3056.1,1650.5 2990.5,1649.5C 2991.83,1620.5 2991.83,1591.5 2990.5,1562.5C 3055.6,1561.84 3120.6,1561.17 3185.5,1560.5C 3203.95,1563.49 3218.78,1557.16 3230,1541.5C 3239.52,1523.33 3238.18,1505.99 3226,1489.5C 3219.3,1482.56 3211.13,1478.4 3201.5,1477C 3172.17,1475.07 3142.84,1473.07 3113.5,1471C 3089.04,1469.11 3065.37,1463.78 3042.5,1455C 3003.98,1436.84 2983.14,1406.34 2980,1363.5C 2975.47,1328.11 2983.14,1295.78 3003,1266.5C 3021.07,1244.04 3044.23,1229.54 3072.5,1223C 3083.69,1220.35 3095.02,1218.68 3106.5,1218C 3177.5,1217.5 3248.5,1217.33 3319.5,1217.5C 3319.67,1251.5 3319.5,1285.5 3319,1319.5C 3255.33,1319.17 3191.67,1318.83 3128,1318.5C 3118.47,1319.02 3108.97,1320.19 3099.5,1322C 3089.72,1324.12 3083.55,1329.95 3081,1339.5C 3075.06,1362.8 3083.23,1378.63 3105.5,1387C 3112.56,1389.81 3119.89,1391.48 3127.5,1392C 3160.52,1392.08 3193.52,1392.75 3226.5,1394C 3257.11,1396.14 3283.78,1407.3 3306.5,1427.5C 3322.72,1444.96 3332.22,1465.62 3335,1489.5C 3338.97,1515.96 3337.31,1542.63 3330,1569.5C 3317.2,1606.3 3292.03,1630.13 3254.5,1641C 3232.6,1647.2 3210.27,1650.36 3187.5,1650.5 Z M 2135.5,1223.5 C 2224.83,1223.33 2314.17,1223.5 2403.5,1224C 2427.7,1223.84 2451.04,1228.17 2473.5,1237C 2514.22,1258.11 2534.89,1291.78 2535.5,1338C 2534.45,1390.82 2510.45,1428.82 2463.5,1452C 2479.56,1458.53 2494.56,1466.86 2508.5,1477C 2521.01,1491.19 2528.84,1507.69 2532,1526.5C 2533.66,1535.09 2534.66,1543.76 2535,1552.5C 2535.5,1585.16 2535.67,1617.83 2535.5,1650.5C 2501.83,1650.5 2468.17,1650.5 2434.5,1650.5C 2434.67,1623.83 2434.5,1597.16 2434,1570.5C 2433.58,1554.64 2430.58,1539.31 2425,1524.5C 2418.83,1510.32 2408.33,1501.16 2393.5,1497C 2384.67,1495.38 2375.84,1494.22 2367,1493.5C 2323.71,1493.51 2280.21,1493.51 2236.5,1493.5C 2236.5,1545.83 2236.5,1598.17 2236.5,1650.5C 2202.83,1650.5 2169.17,1650.5 2135.5,1650.5C 2135.5,1508.17 2135.5,1365.83 2135.5,1223.5 Z M 2930.5,1223.5 C 2930.67,1253.5 2930.5,1283.5 2930,1313.5C 2852.55,1313.26 2775.05,1313.26 2697.5,1313.5C 2696.5,1339.66 2696.17,1365.99 2696.5,1392.5C 2772.5,1392.5 2848.5,1392.5 2924.5,1392.5C 2924.5,1420.17 2924.5,1447.83 2924.5,1475.5C 2848.5,1475.5 2772.5,1475.5 2696.5,1475.5C 2696.17,1504 2696.5,1532.34 2697.5,1560.5C 2775,1561.5 2852.66,1561.83 2930.5,1561.5C 2930.5,1591.17 2930.5,1620.83 2930.5,1650.5C 2819.17,1650.5 2707.83,1650.5 2596.5,1650.5C 2596.5,1508.17 2596.5,1365.83 2596.5,1223.5C 2707.83,1223.5 2819.17,1223.5 2930.5,1223.5 Z"/></g>
<g><path style="opacity:1" fill="#2eaaf6" d="M 1355.5,1144.5 C 1409.95,1198.45 1464.45,1252.78 1519,1307.5C 1524.41,1300.92 1530.25,1294.92 1536.5,1289.5C 1540.01,1291.14 1541.51,1293.81 1541,1297.5C 1522.33,1320.33 1503.5,1343 1484.5,1365.5C 1484.19,1366.48 1483.52,1367.14 1482.5,1367.5C 1440.37,1321.89 1398.7,1275.89 1357.5,1229.5C 1223.83,1228.17 1090.17,1228.17 956.5,1229.5C 956.5,1369.83 956.5,1510.17 956.5,1650.5C 1088.17,1651.83 1219.83,1651.83 1351.5,1650.5C 1394.99,1604.84 1438.33,1559 1481.5,1513C 1484.46,1513.77 1486.8,1515.61 1488.5,1518.5C 1491.55,1523.92 1495.55,1528.59 1500.5,1532.5C 1501.17,1532.5 1501.5,1532.83 1501.5,1533.5C 1503.15,1536.81 1505.48,1539.48 1508.5,1541.5C 1509.47,1544.13 1511.14,1546.13 1513.5,1547.5C 1514.76,1550.43 1516.76,1552.76 1519.5,1554.5C 1521.48,1558.15 1524.15,1561.15 1527.5,1563.5C 1528.47,1566.13 1530.14,1568.13 1532.5,1569.5C 1533.17,1569.5 1533.5,1569.83 1533.5,1570.5C 1534.42,1573.09 1536.09,1575.09 1538.5,1576.5C 1539.76,1579.43 1541.76,1581.76 1544.5,1583.5C 1545.17,1583.5 1545.5,1583.83 1545.5,1584.5C 1546.76,1587.43 1548.76,1589.76 1551.5,1591.5C 1552.17,1591.5 1552.5,1591.83 1552.5,1592.5C 1553.42,1595.09 1555.09,1597.09 1557.5,1598.5C 1558.76,1601.43 1560.76,1603.76 1563.5,1605.5C 1564.17,1605.5 1564.5,1605.83 1564.5,1606.5C 1565.76,1609.43 1567.76,1611.76 1570.5,1613.5C 1571.5,1613.83 1572.17,1614.5 1572.5,1615.5C 1573.08,1617.75 1574.41,1619.42 1576.5,1620.5C 1577.76,1623.43 1579.76,1625.76 1582.5,1627.5C 1583.17,1627.5 1583.5,1627.83 1583.5,1628.5C 1584.76,1631.43 1586.76,1633.76 1589.5,1635.5C 1590.76,1638.43 1592.76,1640.76 1595.5,1642.5C 1597.15,1645.81 1599.48,1648.48 1602.5,1650.5C 1668.17,1650.5 1733.83,1650.5 1799.5,1650.5C 1800.33,1629 1800.83,1607.34 1801,1585.5C 1827.86,1613.36 1855.2,1641.03 1883,1668.5C 1883.46,1669.09 1883.63,1669.76 1883.5,1670.5C 1884.17,1670.5 1884.5,1670.83 1884.5,1671.5C 1883.93,1692.71 1883.6,1713.88 1883.5,1735C 1775.83,1735.5 1668.17,1735.67 1560.5,1735.5C 1534.87,1705.2 1508.87,1675.2 1482.5,1645.5C 1481.09,1646.85 1479.76,1648.18 1478.5,1649.5C 1450.52,1677.81 1422.52,1706.15 1394.5,1734.5C 1218.17,1735.5 1041.83,1735.83 865.5,1735.5C 865.5,1538.5 865.5,1341.5 865.5,1144.5C 1028.83,1144.5 1192.17,1144.5 1355.5,1144.5 Z"/></g>
<g><path style="opacity:1" fill="#0571c1" d="M 3803.5,1512.5 C 3803.67,1522.17 3803.5,1531.84 3803,1541.5C 3775.4,1514.07 3748.24,1486.07 3721.5,1457.5C 3717.05,1447.43 3711.72,1437.93 3705.5,1429C 3703.75,1428.53 3702.09,1427.86 3700.5,1427C 3689.73,1415.61 3676.73,1407.77 3661.5,1403.5C 3661.5,1403.17 3661.5,1402.83 3661.5,1402.5C 3633.07,1375.74 3605.07,1348.08 3577.5,1319.5C 3621.17,1319.5 3664.83,1319.5 3708.5,1319.5C 3708.5,1285.5 3708.5,1251.5 3708.5,1217.5C 3636.83,1217.5 3565.17,1217.5 3493.5,1217.5C 3474.9,1198.39 3456.06,1179.39 3437,1160.5C 3436.54,1159.91 3436.37,1159.24 3436.5,1158.5C 3457.41,1150.62 3479.08,1146.12 3501.5,1145C 3592.5,1144.5 3683.5,1144.33 3774.5,1144.5C 3774.33,1235.17 3774.5,1325.83 3775,1416.5C 3791.87,1446.28 3801.37,1478.28 3803.5,1512.5 Z"/></g>
<g><path style="opacity:1" fill="#0671c1" d="M 2087.5,1305.5 C 2073.26,1275.1 2050.26,1254.27 2018.5,1243C 1996.5,1235.22 1973.84,1230.89 1950.5,1230C 1838.17,1229.17 1725.83,1229.33 1613.5,1230.5C 1572.17,1276.49 1530.51,1322.16 1488.5,1367.5C 1487.38,1366.37 1486.04,1365.7 1484.5,1365.5C 1503.5,1343 1522.33,1320.33 1541,1297.5C 1541.51,1293.81 1540.01,1291.14 1536.5,1289.5C 1560.41,1263.08 1584.58,1236.75 1609,1210.5C 1717.86,1211.45 1826.86,1211.45 1936,1210.5C 1945.15,1211.76 1953.82,1212.76 1962,1213.5C 1982.86,1215.17 2003.36,1220.34 2023.5,1229C 2056.52,1244.53 2077.85,1270.03 2087.5,1305.5 Z"/></g>
<g><path style="opacity:0.259" fill="#1685d4" d="M 2930.5,1223.5 C 2819.17,1223.5 2707.83,1223.5 2596.5,1223.5C 2596.5,1365.83 2596.5,1508.17 2596.5,1650.5C 2595.5,1508 2595.17,1365.33 2595.5,1222.5C 2707.33,1222.17 2819,1222.5 2930.5,1223.5 Z"/></g>
<g><path style="opacity:1" fill="#0570c1" d="M 956.5,1229.5 C 960.167,1229.5 963.833,1229.5 967.5,1229.5C 967.5,1369.83 967.5,1510.17 967.5,1650.5C 963.833,1650.5 960.167,1650.5 956.5,1650.5C 956.5,1510.17 956.5,1369.83 956.5,1229.5 Z"/></g>
<g><path style="opacity:0.812" fill="#1785d6" d="M 956.5,1229.5 C 1090.17,1228.17 1223.83,1228.17 1357.5,1229.5C 1227.83,1229.5 1098.17,1229.5 968.5,1229.5C 968.5,1369.83 968.5,1510.17 968.5,1650.5C 1096.17,1650.5 1223.83,1650.5 1351.5,1650.5C 1219.83,1651.83 1088.17,1651.83 956.5,1650.5C 960.167,1650.5 963.833,1650.5 967.5,1650.5C 967.5,1510.17 967.5,1369.83 967.5,1229.5C 963.833,1229.5 960.167,1229.5 956.5,1229.5 Z"/></g>
<g><path style="opacity:1" fill="#218edf" d="M 1696.5,1271.5 C 1697.83,1328.5 1698.5,1385.83 1698.5,1443.5C 1698.33,1500.83 1698.17,1558.17 1698,1615.5C 1646.15,1556.99 1594.32,1498.49 1542.5,1440C 1594.03,1383.97 1645.36,1327.81 1696.5,1271.5 Z"/></g>
<g><path style="opacity:1" fill="#2eaaf6" d="M 1058.5,1313.5 C 1142.5,1313.33 1226.5,1313.5 1310.5,1314C 1345.79,1356.29 1381.46,1398.29 1417.5,1440C 1379.1,1482.68 1340.6,1525.18 1302,1567.5C 1220.88,1567.4 1139.71,1567.07 1058.5,1566.5C 1058.5,1536.5 1058.5,1506.5 1058.5,1476.5C 1132.17,1476.5 1205.83,1476.5 1279.5,1476.5C 1279.5,1448.17 1279.5,1419.83 1279.5,1391.5C 1205.83,1391.5 1132.17,1391.5 1058.5,1391.5C 1058.5,1365.5 1058.5,1339.5 1058.5,1313.5 Z"/></g>
<g><path style="opacity:1" fill="#218edf" d="M 1801.5,1312.5 C 1843.72,1313.6 1885.88,1313.6 1928,1312.5C 1965.54,1314.37 1986.7,1333.87 1991.5,1371C 1989.11,1402.4 1972.11,1419.4 1940.5,1422C 1893.5,1422.5 1846.5,1422.67 1799.5,1422.5C 1798.85,1385.61 1799.52,1348.95 1801.5,1312.5 Z"/></g>
<g><path style="opacity:1" fill="#218edf" d="M 2244.5,1318.5 C 2286.05,1318.74 2327.55,1318.74 2369,1318.5C 2423.61,1316.68 2441.94,1341.68 2424,1393.5C 2420.74,1403.76 2413.9,1410.26 2403.5,1413C 2396.93,1414.65 2390.27,1415.65 2383.5,1416C 2336.5,1416.5 2289.5,1416.67 2242.5,1416.5C 2241.85,1383.61 2242.52,1350.94 2244.5,1318.5 Z"/></g>
<g><path style="opacity:1" fill="#218edf" d="M 3577.5,1319.5 C 3605.07,1348.08 3633.07,1375.74 3661.5,1402.5C 3660.17,1402.83 3660.17,1403.17 3661.5,1403.5C 3662.79,1405.3 3664.29,1406.96 3666,1408.5C 3666.67,1409.17 3666.67,1409.83 3666,1410.5C 3649.6,1401.59 3632.1,1396.09 3613.5,1394C 3578.5,1393.01 3543.5,1392.01 3508.5,1391C 3497.61,1388.38 3487.27,1384.38 3477.5,1379C 3471.09,1372.94 3468.09,1365.44 3468.5,1356.5C 3468.86,1344.3 3473.19,1333.8 3481.5,1325C 3486.84,1322.25 3492.5,1320.58 3498.5,1320C 3506.75,1319.82 3514.91,1319.32 3523,1318.5C 3541.28,1318.93 3559.45,1319.26 3577.5,1319.5 Z"/></g>
<g><path style="opacity:0.576" fill="#1583d3" d="M 2697.5,1313.5 C 2697.5,1339.5 2697.5,1365.5 2697.5,1391.5C 2773.34,1391.17 2849,1391.5 2924.5,1392.5C 2848.5,1392.5 2772.5,1392.5 2696.5,1392.5C 2696.17,1365.99 2696.5,1339.66 2697.5,1313.5 Z"/></g>
<g><path style="opacity:0.259" fill="#1583d3" d="M 1058.5,1313.5 C 1058.5,1339.5 1058.5,1365.5 1058.5,1391.5C 1132.17,1391.5 1205.83,1391.5 1279.5,1391.5C 1279.5,1419.83 1279.5,1448.17 1279.5,1476.5C 1205.83,1476.5 1132.17,1476.5 1058.5,1476.5C 1058.5,1506.5 1058.5,1536.5 1058.5,1566.5C 1057.5,1536.91 1057.17,1506.57 1057.5,1475.5C 1131.17,1475.5 1204.83,1475.5 1278.5,1475.5C 1278.5,1447.83 1278.5,1420.17 1278.5,1392.5C 1204.83,1392.5 1131.17,1392.5 1057.5,1392.5C 1057.17,1365.99 1057.5,1339.66 1058.5,1313.5 Z"/></g>
<g><path style="opacity:0.576" fill="#1583d3" d="M 2924.5,1475.5 C 2849,1476.5 2773.34,1476.83 2697.5,1476.5C 2697.5,1504.5 2697.5,1532.5 2697.5,1560.5C 2696.5,1532.34 2696.17,1504 2696.5,1475.5C 2772.5,1475.5 2848.5,1475.5 2924.5,1475.5 Z"/></g>
<g><path style="opacity:0.259" fill="#1584d3" d="M 1942.5,1493.5 C 1895.34,1494.5 1848,1494.83 1800.5,1494.5C 1800.82,1500.69 1800.49,1506.69 1799.5,1512.5C 1799.5,1506.17 1799.5,1499.83 1799.5,1493.5C 1847.17,1493.5 1894.83,1493.5 1942.5,1493.5 Z"/></g>
<g><path style="opacity:1" fill="#1c8ada" d="M 1488.5,1518.5 C 1492.97,1522.79 1496.97,1527.45 1500.5,1532.5C 1495.55,1528.59 1491.55,1523.92 1488.5,1518.5 Z"/></g>
<g><path style="opacity:1" fill="#1c89da" d="M 1501.5,1533.5 C 1504.55,1535.55 1506.88,1538.22 1508.5,1541.5C 1505.48,1539.48 1503.15,1536.81 1501.5,1533.5 Z"/></g>
<g><path style="opacity:0.933" fill="#1c8adb" d="M 1508.5,1541.5 C 1510.91,1542.91 1512.58,1544.91 1513.5,1547.5C 1511.14,1546.13 1509.47,1544.13 1508.5,1541.5 Z"/></g>
<g><path style="opacity:1" fill="#1c8ada" d="M 1513.5,1547.5 C 1516.24,1549.24 1518.24,1551.57 1519.5,1554.5C 1516.76,1552.76 1514.76,1550.43 1513.5,1547.5 Z"/></g>
<g><path style="opacity:1" fill="#1c89da" d="M 1519.5,1554.5 C 1522.88,1556.88 1525.55,1559.88 1527.5,1563.5C 1524.15,1561.15 1521.48,1558.15 1519.5,1554.5 Z"/></g>
<g><path style="opacity:0.259" fill="#1583d3" d="M 3185.5,1560.5 C 3120.6,1561.17 3055.6,1561.84 2990.5,1562.5C 3055.16,1560.5 3120.16,1559.84 3185.5,1560.5 Z"/></g>
<g><path style="opacity:1" fill="#0571c1" d="M 2056.5,1578.5 C 2055.83,1578.5 2055.5,1578.83 2055.5,1579.5C 2029.17,1589.61 2001.84,1595.11 1973.5,1596C 1963.92,1596.18 1954.42,1596.68 1945,1597.5C 1943.86,1597.38 1942.69,1597.05 1941.5,1596.5C 1924.17,1596.5 1906.83,1596.5 1889.5,1596.5C 1889.5,1592.5 1889.5,1588.5 1889.5,1584.5C 1916.03,1584.42 1941.87,1584.42 1967,1584.5C 1975.63,1583.68 1983.97,1582.68 1992,1581.5C 2013.51,1580.64 2034.84,1575.64 2056,1566.5C 2056.5,1567 2057,1567.5 2057.5,1568C 2056.53,1571.28 2056.2,1574.78 2056.5,1578.5 Z"/></g>
<g><path style="opacity:0.933" fill="#1c8adb" d="M 1527.5,1563.5 C 1529.91,1564.91 1531.58,1566.91 1532.5,1569.5C 1530.14,1568.13 1528.47,1566.13 1527.5,1563.5 Z"/></g>
<g><path style="opacity:1" fill="#1b89d9" d="M 1533.5,1570.5 C 1535.91,1571.91 1537.58,1573.91 1538.5,1576.5C 1536.09,1575.09 1534.42,1573.09 1533.5,1570.5 Z"/></g>
<g><path style="opacity:1" fill="#0571c1" d="M 2355.5,1590.5 C 2354.83,1587.83 2353.17,1586.17 2350.5,1585.5C 2342.68,1584.51 2334.68,1584.17 2326.5,1584.5C 2326.5,1580.5 2326.5,1576.5 2326.5,1572.5C 2334.21,1572.57 2341.71,1572.57 2349,1572.5C 2353.17,1573.33 2355.67,1575.83 2356.5,1580C 2356.71,1583.49 2356.37,1586.99 2355.5,1590.5 Z"/></g>
<g><path style="opacity:1" fill="#0571c1" d="M 3802.5,1559.5 C 3794.79,1626.8 3762.46,1678.3 3705.5,1714C 3685.87,1725.1 3664.87,1732.43 3642.5,1736C 3627.27,1738.57 3611.93,1740.23 3596.5,1741C 3500.17,1741.5 3403.83,1741.67 3307.5,1741.5C 3307.5,1737.5 3307.5,1733.5 3307.5,1729.5C 3395.54,1729.51 3483.37,1729.51 3571,1729.5C 3574.67,1730.17 3578.33,1730.83 3582,1731.5C 3594,1731.5 3606,1731.5 3618,1731.5C 3649.3,1729.21 3679.13,1720.71 3707.5,1706C 3759.13,1670.19 3790.79,1621.35 3802.5,1559.5 Z"/></g>
<g><path style="opacity:1" fill="#1c8ada" d="M 1538.5,1576.5 C 1541.24,1578.24 1543.24,1580.57 1544.5,1583.5C 1541.76,1581.76 1539.76,1579.43 1538.5,1576.5 Z"/></g>
<g><path style="opacity:0.812" fill="#1785d5" d="M 2055.5,1579.5 C 2055.5,1578.83 2055.83,1578.5 2056.5,1578.5C 2057.5,1628.66 2057.83,1679 2057.5,1729.5C 2057.5,1733.5 2057.5,1737.5 2057.5,1741.5C 2056.83,1687.5 2056.17,1633.5 2055.5,1579.5 Z"/></g>
<g><path style="opacity:1" fill="#1c89d9" d="M 1545.5,1584.5 C 1548.24,1586.24 1550.24,1588.57 1551.5,1591.5C 1548.76,1589.76 1546.76,1587.43 1545.5,1584.5 Z"/></g>
<g><path style="opacity:1" fill="#1b89d9" d="M 1552.5,1592.5 C 1554.91,1593.91 1556.58,1595.91 1557.5,1598.5C 1555.09,1597.09 1553.42,1595.09 1552.5,1592.5 Z"/></g>
<g><path style="opacity:0.259" fill="#1583d3" d="M 1889.5,1596.5 C 1906.83,1596.5 1924.17,1596.5 1941.5,1596.5C 1924.26,1597.18 1906.93,1597.85 1889.5,1598.5C 1889.5,1597.83 1889.5,1597.17 1889.5,1596.5 Z"/></g>
<g><path style="opacity:1" fill="#1c8ada" d="M 1557.5,1598.5 C 1560.24,1600.24 1562.24,1602.57 1563.5,1605.5C 1560.76,1603.76 1558.76,1601.43 1557.5,1598.5 Z"/></g>
<g><path style="opacity:1" fill="#1b89d9" d="M 1564.5,1606.5 C 1567.24,1608.24 1569.24,1610.57 1570.5,1613.5C 1567.76,1611.76 1565.76,1609.43 1564.5,1606.5 Z"/></g>
<g><path style="opacity:1" fill="#1b89d9" d="M 1572.5,1615.5 C 1574.59,1616.58 1575.92,1618.25 1576.5,1620.5C 1574.41,1619.42 1573.08,1617.75 1572.5,1615.5 Z"/></g>
<g><path style="opacity:1" fill="#1c8ada" d="M 1576.5,1620.5 C 1579.24,1622.24 1581.24,1624.57 1582.5,1627.5C 1579.76,1625.76 1577.76,1623.43 1576.5,1620.5 Z"/></g>
<g><path style="opacity:1" fill="#1b89d9" d="M 1583.5,1628.5 C 1586.24,1630.24 1588.24,1632.57 1589.5,1635.5C 1586.76,1633.76 1584.76,1631.43 1583.5,1628.5 Z"/></g>
<g><path style="opacity:1" fill="#1c89d9" d="M 1589.5,1635.5 C 1592.24,1637.24 1594.24,1639.57 1595.5,1642.5C 1592.76,1640.76 1590.76,1638.43 1589.5,1635.5 Z"/></g>
<g><path style="opacity:1" fill="#1d8adb" d="M 1595.5,1642.5 C 1598.55,1644.55 1600.88,1647.22 1602.5,1650.5C 1599.48,1648.48 1597.15,1645.81 1595.5,1642.5 Z"/></g>
<g><path style="opacity:1" fill="#0a75c5" d="M 1560.5,1735.5 C 1557.88,1735.77 1555.38,1735.44 1553,1734.5C 1529.67,1707.17 1506.33,1679.83 1483,1652.5C 1481.87,1650.86 1480.37,1649.86 1478.5,1649.5C 1479.76,1648.18 1481.09,1646.85 1482.5,1645.5C 1508.87,1675.2 1534.87,1705.2 1560.5,1735.5 Z"/></g>
<g><path style="opacity:0.812" fill="#1987d8" d="M 2990.5,1649.5 C 3056.1,1650.5 3121.76,1650.83 3187.5,1650.5C 3154.84,1651.17 3122,1651.5 3089,1651.5C 3055.83,1651.5 3022.99,1650.83 2990.5,1649.5 Z"/></g>
<g><path style="opacity:1" fill="#0571c1" d="M 3306.5,1706.5 C 3284.52,1721.67 3260.19,1731.5 3233.5,1736C 3220.27,1738.47 3206.93,1740.14 3193.5,1741C 2914.5,1741.5 2635.5,1741.67 2356.5,1741.5C 2356.5,1737.5 2356.5,1733.5 2356.5,1729.5C 2634.98,1729.49 2912.48,1729.49 3189,1729.5C 3214.52,1727.81 3240.35,1722.97 3266.5,1715C 3281.25,1710.04 3294.75,1702.88 3307,1693.5C 3307.77,1697.92 3307.6,1702.25 3306.5,1706.5 Z"/></g>
<g><path style="opacity:1" fill="#0571c1" d="M 2057.5,1729.5 C 2147.17,1729.5 2236.83,1729.5 2326.5,1729.5C 2326.5,1733.5 2326.5,1737.5 2326.5,1741.5C 2236.83,1741.5 2147.17,1741.5 2057.5,1741.5C 2057.5,1737.5 2057.5,1733.5 2057.5,1729.5 Z"/></g>
</svg>
